<?xml version="1.0" encoding="utf-8"?>

<!-- Uploaded to: SVG Repo, www.svgrepo.com, Generator: SVG Repo Mixer Tools -->
<svg width="800px" height="800px" viewBox="0 0 64 64" xmlns="http://www.w3.org/2000/svg" xmlns:xlink="http://www.w3.org/1999/xlink">
  <defs>
    <circle id="webdollar-a" cx="24" cy="24" r="24"/>
  </defs>
  <g fill="none" fill-rule="evenodd">
    <g transform="translate(3 14)">
      <mask id="webdollar-b" fill="#ffffff">
        <use xlink:href="#webdollar-a"/>
      </mask>
      <use fill="#5EA7FF" xlink:href="#webdollar-a"/>
      <path fill="#E8E8E8" d="M36.6661127 17.0051965C36.6661127 17.0051965 30.8380926 14.6267342 29.1021564 15.8159654 27.3662202 17.0051965 28.2935842 22.6205727 28.2935842 22.6205727 28.2935842 22.6205727 25.7064158 26.3284459 27 28.278609 28.2935842 30.228772 31.8868737 29.5584107 33.9056789 31.2785955 35.924484 32.9987803 35.0857217 36.0860558 35.0857217 36.0860558L34.5974281 39.6905025C34.5974281 39.6905025 40.0047545 37.2674113 41.562831 33.7765059 43.1209076 30.2856006 42.6162063 24.8126434 42.6162063 24.8126434L45.7723943 21.951138 48.5478382 12.9505118 38.8083039 9.80069457 37.7352394 5 30.7704928 6.9741762 30.1410929 12.210206 35.4904638 13.9813469 36.6661127 17.0051965zM-1.81078594 20.0403062C-1.81078594 20.0403062.159155298 18.784322.422084765 18.7643353 2.43924887 18.611 9.46837964 19.0398197 11.3062324 16.3753768 13.3836422 13.3636342 15.1153394 9.3755591 15.1153394 9.3755591L15.045758 6.30708574 4.18355042 3.6413691-1.81078594 20.0403062z" mask="url(#webdollar-b)"/>
    </g>
    <path fill="#E8E8E8" d="M16.8500764,56.022879 L17.6807492,46.8489809 L11.0072639,41.7401241 C11.0072639,41.7401241 10.6218551,37.6517247 15.4657433,37.0739764 C20.3096316,36.4962281 23.2939952,39.4922708 23.2939952,39.4922708 C23.2939952,39.4922708 25.2170247,42.4681839 24.4998577,44.4898117 C23.7826907,46.5114395 21.9271808,49.5388133 21.9271808,49.5388133 C21.9271808,49.5388133 21.7799961,52.9780776 20.5224094,54.5841653 C19.2648227,56.190253 16.8500764,56.022879 16.8500764,56.022879 Z"/>
  </g>
</svg>